<svg xmlns="http://www.w3.org/2000/svg" width="16" height="20" viewBox="0 0 16 20">
    <g fill="#6D6E71" fill-rule="nonzero" stroke="#6D6E71" stroke-width=".5">
        <path d="M11.906 7.875H4.094a.312.312 0 1 0 0 .625h7.812a.312.312 0 1 0 0-.625zM4.094 6h3.125a.312.312 0 1 0 0-.625H4.094a.312.312 0 1 0 0 .625zM11.906 10.375H4.094a.312.312 0 1 0 0 .625h7.812a.312.312 0 1 0 0-.625zM11.906 12.875H4.094a.312.312 0 1 0 0 .625h7.812a.312.312 0 1 0 0-.625zM11.906 15.375H4.094a.312.312 0 1 0 0 .625h7.812a.312.312 0 1 0 0-.625z"/>
        <path d="M10.786 1H.656v18.75h14.688V5.558L10.786 1zm.183 1.067l3.308 3.308h-3.308V2.067zM1.28 19.125v-17.5h9.063V6h4.375v13.125H1.28z"/>
    </g>
</svg>
