<svg xmlns="http://www.w3.org/2000/svg" width="19" height="19" viewBox="0 0 19 19">
    <g fill="none" fill-rule="nonzero" transform="matrix(1 0 0 -1 0 19)">
        <circle cx="9.5" cy="9.5" r="8.962" fill="#FFF"/>
        <path fill="#231F20" d="M9.5 0C4.266 0 0 4.266 0 9.5S4.266 19 9.5 19 19 14.734 19 9.5 14.734 0 9.5 0zm0 17.925c-4.642 0-8.425-3.783-8.425-8.425 0-4.642 3.783-8.425 8.425-8.425 4.642 0 8.425 3.783 8.425 8.425 0 4.642-3.783 8.425-8.425 8.425z"/>
        <path fill="#231F20" d="M9.5 6.094a.528.528 0 0 0-.538.538v4.481c0 .305.233.538.538.538a.528.528 0 0 0 .538-.538v-4.48a.528.528 0 0 0-.538-.539zM9.5 12.368c-.036 0-.072 0-.108.018-.035 0-.071.018-.107.036-.036.018-.054.036-.09.053a.315.315 0 0 0-.09.072.391.391 0 0 0-.071.09c-.018.036-.036.054-.054.09-.018.035-.018.071-.036.107 0 .036-.018.072-.018.108 0 .143.054.286.162.376a.553.553 0 0 0 .753 0 .516.516 0 0 0 .16-.376c0-.036 0-.072-.017-.108a.255.255 0 0 0-.036-.108.392.392 0 0 0-.054-.09c-.018-.035-.036-.053-.071-.089-.018-.018-.054-.054-.09-.072-.036-.017-.054-.035-.09-.053-.035-.018-.071-.018-.107-.036.036-.018 0-.018-.036-.018z"/>
        <path fill="#231F20" d="M9.5 6.094a.516.516 0 0 0-.376.162L7.33 8.048a.52.52 0 0 0 0 .753.52.52 0 0 0 .753 0L9.5 7.385 10.916 8.8a.52.52 0 0 0 .753 0 .52.52 0 0 0 0-.753L9.876 6.256a.516.516 0 0 0-.376-.162z"/>
    </g>
</svg>
