<svg xmlns="http://www.w3.org/2000/svg" width="150" height="19" viewBox="0 0 150 19">
    <g fill="#FFF" fill-rule="evenodd">
        <path d="M11.286.642c1.501 0 2.91-.014 4.318.018.181.005.41.223.529.4 3.23 4.75 6.451 9.505 9.673 14.26.685 1.014 1.374 2.024 2.129 3.133-1.64 0-3.161.007-4.684-.011-.12-.002-.276-.15-.355-.271C19.076 12.434 15.262 6.694 11.45.95c-.043-.064-.073-.136-.163-.309M.165.642c1.496 0 2.868-.018 4.24.02.219.006.505.215.634.412 2.033 3.103 4.047 6.218 6.066 9.33l2.581 3.977 2.492-3.426c.27.403.498.75.749 1.127-1.467 2.034-2.921 4.066-4.392 6.084-.333.456-.714.41-1.051-.105-1.405-2.142-2.8-4.288-4.197-6.433C5.042 8.181 2.797 4.735.553 1.287.437 1.107.333.92.165.642M31.743 18.369h3.18V.444h-3.18zM54.665 11.26L46.199.445H44.67V18.38h3.058V7.272l8.698 11.341h1.297V.445h-3.058zM75.752 11.395h2.482v3.524c-.734.62-1.667.93-2.801.93-1.722 0-3.08-.572-4.08-1.714-1-1.14-1.499-2.666-1.499-4.575 0-2.007.51-3.607 1.53-4.802 1.019-1.195 2.41-1.792 4.17-1.792.564 0 1.238.165 2.02.495.783.331 1.361.663 1.738.997l1.333-2.556C79.266.727 77.593.139 75.629.139c-2.774 0-4.98.864-6.62 2.594-1.638 1.73-2.458 3.976-2.458 6.74 0 2.766.753 4.992 2.257 6.675 1.504 1.685 3.54 2.527 6.111 2.527 1.183 0 2.372-.172 3.567-.522 1.194-.344 2.17-.829 2.93-1.448V8.68h-5.664v2.716zM101.622.445L97.828 12.52 93.95.445h-1.688L88.654 18.38h3.07l1.933-9.665 3.608 9.898h1.139l3.61-9.898 1.86 9.665h3.083L103.299.445zM120.3.2l-7.146 18.169h3.535l.928-2.702.32-.931h.008l1.36-3.86 1.69-5.195 1.585 4.874 1.908 5.311.9 2.503h3.514L121.693.2zM146.806.445V11.26L138.34.445h-1.53V18.38h3.06V7.272l8.698 11.342h1.297V.444z"/>
    </g>
</svg>
