<svg xmlns="http://www.w3.org/2000/svg" width="19" height="19" viewBox="0 0 19 19">
    <g fill="none" fill-rule="nonzero" transform="matrix(1 0 0 -1 0 19)">
        <circle cx="9.5" cy="9.5" r="8.962" fill="#FFF"/>
        <path fill="#034EA2" d="M9.5 0C4.266 0 0 4.266 0 9.5S4.266 19 9.5 19 19 14.734 19 9.5 14.734 0 9.5 0zm0 17.925c-4.642 0-8.425-3.783-8.425-8.425 0-4.642 3.783-8.425 8.425-8.425 4.642 0 8.425 3.783 8.425 8.425 0 4.642-3.783 8.425-8.425 8.425z"/>
        <path fill="#034EA2" d="M9.538 6C9.233 6 9 6.335 9 6.774v6.452c0 .439.233.774.538.774.304 0 .537-.335.537-.774V6.774c0-.439-.233-.774-.537-.774z"/>
        <path fill="#034EA2" d="M5.538 10c0 .305.335.538.774.538h6.452c.438 0 .774-.233.774-.538 0-.305-.336-.538-.774-.538H6.312c-.439 0-.774.233-.774.538z"/>
    </g>
</svg>
