<?xml version="1.0" encoding="UTF-8"?>
<svg width="19px" height="19px" viewBox="0 0 19 19" version="1.1" xmlns="http://www.w3.org/2000/svg" xmlns:xlink="http://www.w3.org/1999/xlink">
    <!-- Generator: Sketch 50.2 (55047) - http://www.bohemiancoding.com/sketch -->
    <title>Group 5 Copy 8</title>
    <desc>Created with Sketch.</desc>
    <defs></defs>
    <g id="Page-1" stroke="none" stroke-width="1" fill="none" fill-rule="evenodd">
        <g id="Projects-Details_2" transform="translate(-718.000000, -338.000000)" fill-rule="nonzero">
            <g id="Group-5-Copy-8" transform="translate(727.500000, 347.500000) scale(1, -1) translate(-727.500000, -347.500000) translate(718.000000, 338.000000)">
                <circle id="Oval" fill="#FFFFFF" cx="9.5" cy="9.5" r="8.96226415"></circle>
                <path d="M9.5,19 C4.26603774,19 0,14.7339623 0,9.5 C0,4.26603774 4.26603774,0 9.5,0 C14.7339623,0 19,4.26603774 19,9.5 C19,14.7339623 14.7339623,19 9.5,19 Z M9.5,1.0754717 C4.85754717,1.0754717 1.0754717,4.85754717 1.0754717,9.5 C1.0754717,14.1424528 4.85754717,17.9245283 9.5,17.9245283 C14.1424528,17.9245283 17.9245283,14.1424528 17.9245283,9.5 C17.9245283,4.85754717 14.1424528,1.0754717 9.5,1.0754717 Z" id="Shape" fill="#D0021B" transform="translate(9.500000, 9.500000) scale(1, -1) translate(-9.500000, -9.500000) "></path>
                <path d="M9.53773585,14 C9.23301887,14 9,13.6645161 9,13.2258065 L9,6.77419355 C9,6.33548387 9.23301887,6 9.53773585,6 C9.84245283,6 10.0754717,6.33548387 10.0754717,6.77419355 L10.0754717,13.2258065 C10.0754717,13.6645161 9.84245283,14 9.53773585,14 Z" id="Shape" fill="#D0021B" transform="translate(9.537736, 10.000000) scale(1, -1) rotate(90.000000) translate(-9.537736, -10.000000) "></path>
            </g>
        </g>
    </g>
</svg>