<svg xmlns="http://www.w3.org/2000/svg" width="142.067" height="27.123" viewBox="0 0 142.067 27.123">
  <g id="Group_1075" data-name="Group 1075" transform="translate(-39.5 -29.466)">
    <g id="Group_1070" data-name="Group 1070" transform="translate(39.5 30.618)">
      <path id="Path_333" data-name="Path 333" d="M-19798.537-10311.175v-11.58l17.709-10.293,18.219,10.293v14.678h-7.045v-10.06l-11.174-6.5-10.959,6.129v10.064h6.428" transform="translate(19801.207 10333.048)" fill="none" stroke="#071731" stroke-width="2"/>
      <g id="Ellipse_25" data-name="Ellipse 25" transform="translate(0 20.578)" fill="none" stroke="#071731" stroke-width="2">
        <ellipse cx="2.679" cy="2.679" rx="2.679" ry="2.679" stroke="none"/>
        <ellipse cx="2.679" cy="2.679" rx="1.679" ry="1.679" fill="none"/>
      </g>
      <g id="Rectangle_838" data-name="Rectangle 838" transform="translate(22.2 20.196)" fill="none" stroke="#4652a4" stroke-width="1.7">
        <rect width="5.359" height="5.359" stroke="none"/>
        <rect x="0.85" y="0.85" width="3.659" height="3.659" fill="none"/>
      </g>
      <path id="Path_334" data-name="Path 334" d="M-19771.615-10305.447v-3.863h-8.7v8.306" transform="translate(19796.371 10326.767)" fill="none" stroke="#4652a4" stroke-width="2"/>
    </g>
    <g id="Group_1074" data-name="Group 1074" transform="translate(87.631 35.855)">
      <path id="Path_338" data-name="Path 338" d="M2.874-6.139V-26.182h7.148a8.333,8.333,0,0,1,3.866.8,5.333,5.333,0,0,1,2.306,2.218,6.754,6.754,0,0,1,.765,3.261,6.581,6.581,0,0,1-.77,3.239A5.245,5.245,0,0,1,13.877-14.5a8.579,8.579,0,0,1-3.863.773H4.6v-2.6H9.732a5.788,5.788,0,0,0,2.4-.424,2.8,2.8,0,0,0,1.352-1.222,4.028,4.028,0,0,0,.43-1.932,4.184,4.184,0,0,0-.434-1.964,2.9,2.9,0,0,0-1.36-1.276A5.591,5.591,0,0,0,9.7-23.59H5.9V-6.139Zm9.9-9.043,4.948,9.043H14.281L9.419-15.182ZM23.055-6.139V-26.182H35.621v2.6H26.085v6.107h8.886v2.6H26.085v6.138h9.653v2.6Z" transform="translate(-2.873 26.456)" fill="#4652a4"/>
      <path id="Path_339" data-name="Path 339" d="M59.312-6.223V-26.266h3.03V-8.823h9.074v2.6ZM92.9-16.245a12,12,0,0,1-1.176,5.513,8.6,8.6,0,0,1-3.216,3.545,8.754,8.754,0,0,1-4.635,1.238,8.745,8.745,0,0,1-4.638-1.24,8.613,8.613,0,0,1-3.214-3.547,12,12,0,0,1-1.175-5.509,12.011,12.011,0,0,1,1.175-5.513A8.6,8.6,0,0,1,79.234-25.3a8.756,8.756,0,0,1,4.638-1.238A8.754,8.754,0,0,1,88.507-25.3a8.6,8.6,0,0,1,3.216,3.545A12,12,0,0,1,92.9-16.245Zm-3,0a9.675,9.675,0,0,0-.788-4.123,5.857,5.857,0,0,0-2.151-2.544,5.648,5.648,0,0,0-3.09-.864,5.648,5.648,0,0,0-3.089.864,5.856,5.856,0,0,0-2.151,2.544,9.675,9.675,0,0,0-.788,4.123,9.675,9.675,0,0,0,.788,4.123,5.857,5.857,0,0,0,2.151,2.544,5.648,5.648,0,0,0,3.089.864,5.648,5.648,0,0,0,3.09-.864,5.857,5.857,0,0,0,2.151-2.544A9.675,9.675,0,0,0,89.9-16.245Zm5.59-10.021h3.437l5.23,9.113h.219l5.23-9.113h3.437l-7.265,12.174v7.868h-3.022v-7.868Z" transform="translate(-19.107 26.54)" fill="#071731"/>
    </g>
  </g>
</svg>
