<svg xmlns="http://www.w3.org/2000/svg" width="20.205" height="20.205" viewBox="0 0 20.205 20.205">
  <g id="About-Us" transform="translate(-9.9 -868.578)">
    <g id="Group_33" data-name="Group 33" transform="translate(10 868.678)">
      <g id="Path_138" data-name="Path 138" transform="translate(-1035.898 -702.208)" fill="#072040">
        <path d="M 1045.900268554688 722.2623901367188 C 1044.292846679688 722.2623901367188 1042.667846679688 722.0968017578125 1041.0703125 721.7703247070312 C 1038.685424804688 721.28173828125 1036.828735351562 719.4249877929688 1036.340209960938 717.0401000976562 C 1035.683471679688 713.8343505859375 1035.683471679688 710.5842895507812 1036.340209960938 707.3801879882812 C 1036.828369140625 704.9971313476562 1038.68505859375 703.1404418945312 1041.0703125 702.6500244140625 C 1042.664794921875 702.3232421875 1044.289672851562 702.157470703125 1045.899536132812 702.157470703125 C 1047.509521484375 702.157470703125 1049.134765625 702.3232421875 1050.730224609375 702.6500244140625 C 1053.11328125 703.1382446289062 1054.969970703125 704.9949340820312 1055.460327148438 707.380126953125 C 1056.116943359375 710.5842895507812 1056.116943359375 713.8343505859375 1055.460327148438 717.0400390625 C 1054.97216796875 719.4231567382812 1053.115478515625 721.2799072265625 1050.730346679688 721.770263671875 C 1049.140625 722.0968017578125 1047.515502929688 722.2623901367188 1045.900268554688 722.2623901367188 Z M 1045.900268554688 703.4010620117188 C 1044.37109375 703.4010620117188 1042.830322265625 703.5585327148438 1041.32080078125 703.869140625 C 1039.4248046875 704.2581176757812 1037.948364257812 705.7345581054688 1037.559204101562 707.630615234375 C 1036.93603515625 710.669921875 1036.93603515625 713.7520751953125 1037.559204101562 716.7913818359375 C 1037.948364257812 718.6874389648438 1039.4248046875 720.1638793945312 1041.320678710938 720.5528564453125 C 1042.834716796875 720.8627319335938 1044.376586914062 721.0198974609375 1045.903442382812 721.0198974609375 C 1045.903564453125 721.0198974609375 1045.903686523438 721.0198974609375 1045.90380859375 721.0198974609375 C 1047.430419921875 721.0198974609375 1048.970458984375 720.8627319335938 1050.4814453125 720.5528564453125 C 1052.37744140625 720.1638793945312 1053.853881835938 718.6873779296875 1054.242919921875 716.7913818359375 C 1054.8662109375 713.7520751953125 1054.8662109375 710.669921875 1054.242919921875 707.630615234375 C 1053.853881835938 705.7345581054688 1052.37744140625 704.2581176757812 1050.4814453125 703.8692016601562 C 1048.970336914062 703.5585327148438 1047.428955078125 703.4010620117188 1045.900268554688 703.4010620117188 Z" stroke="none"/>
        <path d="M 1045.900268554688 722.21240234375 C 1047.5107421875 722.21240234375 1049.121337890625 722.0497436523438 1050.72021484375 721.7213134765625 C 1053.08447265625 721.2352294921875 1054.927001953125 719.394287109375 1055.411376953125 717.030029296875 C 1056.066650390625 713.8308715820312 1056.066650390625 710.5877075195312 1055.411376953125 707.3901977539062 C 1054.92529296875 705.0260009765625 1053.08447265625 703.1834106445312 1050.72021484375 702.6990356445312 C 1047.521240234375 702.043701171875 1044.278076171875 702.0436401367188 1041.080322265625 702.6990356445312 C 1038.716064453125 703.1851196289062 1036.87353515625 705.0260009765625 1036.38916015625 707.3901977539062 C 1035.733764648438 710.5877075195312 1035.733764648438 713.8308715820312 1036.38916015625 717.030029296875 C 1036.87353515625 719.394287109375 1038.716064453125 721.2369384765625 1041.080322265625 721.7213134765625 C 1042.679077148438 722.048095703125 1044.289672851562 722.21240234375 1045.900268554688 722.21240234375 M 1050.60498046875 721.16064453125 L 1050.610107421875 721.16064453125 L 1050.60498046875 721.16064453125 M 1045.900268554688 703.35107421875 C 1047.4345703125 703.35107421875 1048.96728515625 703.5068969726562 1050.491455078125 703.8201904296875 C 1052.406860351562 704.213134765625 1053.89892578125 705.7051391601562 1054.291870117188 707.6205444335938 C 1054.916748046875 710.6672973632812 1054.916748046875 713.7546997070312 1054.291870117188 716.8014526367188 C 1053.89892578125 718.7168579101562 1052.406860351562 720.2088623046875 1050.491455078125 720.601806640625 C 1047.444946289062 721.2266845703125 1044.355712890625 721.22509765625 1041.310668945312 720.601806640625 C 1039.395263671875 720.2088623046875 1037.9033203125 718.7168579101562 1037.51025390625 716.8014526367188 C 1036.885498046875 713.7546997070312 1036.885498046875 710.6672973632812 1037.51025390625 707.6205444335938 C 1037.9033203125 705.7051391601562 1039.395263671875 704.213134765625 1041.310668945312 703.8201904296875 C 1042.833251953125 703.5068969726562 1044.365844726562 703.35107421875 1045.900268554688 703.35107421875 M 1045.900268554688 722.3123779296875 C 1044.28955078125 722.3123779296875 1042.6611328125 722.146484375 1041.060302734375 721.8192749023438 C 1038.65576171875 721.32666015625 1036.783813476562 719.4546508789062 1036.291137695312 717.0501098632812 C 1035.633056640625 713.8377075195312 1035.633056640625 710.5808715820312 1036.291137695312 707.3701171875 C 1036.783447265625 704.9674682617188 1038.655395507812 703.0955200195312 1041.060180664062 702.60107421875 C 1042.658081054688 702.2735595703125 1044.286254882812 702.1074829101562 1045.899536132812 702.1074829101562 C 1047.512939453125 702.1074829101562 1049.1416015625 702.2735595703125 1050.740234375 702.60107421875 C 1053.142944335938 703.0933227539062 1055.014892578125 704.9652709960938 1055.50927734375 707.3700561523438 C 1056.167358398438 710.5808715820312 1056.167358398438 713.8377075195312 1055.509399414062 717.0501098632812 C 1055.01708984375 719.4528198242188 1053.145141601562 721.3248291015625 1050.740356445312 721.8192749023438 C 1049.147338867188 722.146484375 1047.518920898438 722.3123779296875 1045.900268554688 722.3123779296875 Z M 1045.900268554688 703.4510498046875 C 1044.374389648438 703.4510498046875 1042.837036132812 703.6082153320312 1041.330810546875 703.9181518554688 C 1039.454467773438 704.3031005859375 1037.993286132812 705.7642211914062 1037.608276367188 707.640625 C 1036.986328125 710.67333984375 1036.986328125 713.7487182617188 1037.608276367188 716.7813720703125 C 1037.993286132812 718.6577758789062 1039.454467773438 720.118896484375 1041.330810546875 720.5038452148438 C 1042.841430664062 720.8131103515625 1044.380004882812 720.9699096679688 1045.903442382812 720.9699096679688 C 1047.427001953125 720.9699096679688 1048.963745117188 720.8131103515625 1050.471313476562 720.5038452148438 C 1052.347778320312 720.118896484375 1053.808959960938 718.65771484375 1054.19384765625 716.7813720703125 C 1054.81591796875 713.7487182617188 1054.81591796875 710.67333984375 1054.19384765625 707.640625 C 1053.808959960938 705.7642822265625 1052.347778320312 704.3031005859375 1050.471313476562 703.9181518554688 C 1048.963500976562 703.6082153320312 1047.425537109375 703.4510498046875 1045.900268554688 703.4510498046875 Z" stroke="none" fill="#072040"/>
      </g>
    </g>
    <g id="Ellipse_88" data-name="Ellipse 88" transform="translate(14 875.68)" fill="none" stroke="#566577" stroke-width="1.4">
      <circle cx="3" cy="3" r="3" stroke="none"/>
      <circle cx="3" cy="3" r="2.3" fill="none"/>
    </g>
    <line id="Line_90" data-name="Line 90" x2="4" transform="translate(21.5 877.18)" fill="none" stroke="#566577" stroke-linecap="round" stroke-width="1.4"/>
    <line id="Line_91" data-name="Line 91" x2="4" transform="translate(21.5 880.18)" fill="none" stroke="#566577" stroke-linecap="round" stroke-width="1.4"/>
  </g>
</svg>
