<svg xmlns="http://www.w3.org/2000/svg" width="20.005" height="20.005" viewBox="0 0 20.005 20.005">
  <g id="Banner" transform="translate(-10 -868.678)">
    <g id="Group_33" data-name="Group 33" transform="translate(10 868.678)">
      <path id="Path_138" data-name="Path 138" d="M1045.9,722.212a24.04,24.04,0,0,1-4.82-.491,6.017,6.017,0,0,1-4.691-4.691,23.877,23.877,0,0,1,0-9.64,6.019,6.019,0,0,1,4.691-4.691,23.877,23.877,0,0,1,9.64,0,6.019,6.019,0,0,1,4.691,4.691,23.881,23.881,0,0,1,0,9.64,6.019,6.019,0,0,1-4.691,4.691h0A23.922,23.922,0,0,1,1045.9,722.212Zm4.7-1.052h0Zm-4.7-17.81a22.735,22.735,0,0,0-4.59.469,4.876,4.876,0,0,0-3.8,3.8,22.72,22.72,0,0,0,0,9.181,4.876,4.876,0,0,0,3.8,3.8,22.742,22.742,0,0,0,9.181,0,4.876,4.876,0,0,0,3.8-3.8,22.716,22.716,0,0,0,0-9.181,4.876,4.876,0,0,0-3.8-3.8A22.763,22.763,0,0,0,1045.9,703.351Z" transform="translate(-1035.898 -702.208)" fill="#072040"/>
    </g>
    <g id="Rectangle_914" data-name="Rectangle 914" transform="translate(13 874)" fill="none" stroke="#566577" stroke-width="1.2">
      <rect width="14" height="10" rx="2" stroke="none"/>
      <rect x="0.6" y="0.6" width="12.8" height="8.8" rx="1.4" fill="none"/>
    </g>
    <path id="Path_506" data-name="Path 506" d="M-19472.891-9548.2l4.4-4.4,4.4,4.4" transform="translate(19487 10431.281)" fill="none" stroke="#566577" stroke-linecap="round" stroke-linejoin="round" stroke-width="1.2"/>
    <path id="Path_507" data-name="Path 507" d="M-19471.906-9551.187l1.492-1.412,2.475,2.475" transform="translate(19494 10433)" fill="none" stroke="#566577" stroke-linecap="round" stroke-linejoin="round" stroke-width="1.2"/>
  </g>
</svg>
