<svg id="Group_39" data-name="Group 39" xmlns="http://www.w3.org/2000/svg" width="20.005" height="20.005" viewBox="0 0 20.005 20.005">
  <g id="Group_33" data-name="Group 33">
    <path id="Path_138" data-name="Path 138" d="M1045.9,722.212a24.04,24.04,0,0,1-4.82-.491,6.017,6.017,0,0,1-4.691-4.691,23.877,23.877,0,0,1,0-9.64,6.019,6.019,0,0,1,4.691-4.691,23.877,23.877,0,0,1,9.64,0,6.019,6.019,0,0,1,4.691,4.691,23.881,23.881,0,0,1,0,9.64,6.019,6.019,0,0,1-4.691,4.691h0A23.922,23.922,0,0,1,1045.9,722.212Zm4.7-1.052h0Zm-4.7-17.81a22.735,22.735,0,0,0-4.59.469,4.876,4.876,0,0,0-3.8,3.8,22.72,22.72,0,0,0,0,9.181,4.876,4.876,0,0,0,3.8,3.8,22.742,22.742,0,0,0,9.181,0,4.876,4.876,0,0,0,3.8-3.8,22.716,22.716,0,0,0,0-9.181,4.876,4.876,0,0,0-3.8-3.8A22.763,22.763,0,0,0,1045.9,703.351Z" transform="translate(-1035.898 -702.208)" fill="#072040"/>
  </g>
  <g id="Group_38" data-name="Group 38" transform="translate(5.354 5.355)">
    <g id="Group_34" data-name="Group 34">
      <path id="Path_139" data-name="Path 139" d="M1068.082,743.126a.572.572,0,0,1-.4-.976l8.153-8.153a.571.571,0,0,1,.808.808l-8.153,8.153A.562.562,0,0,1,1068.082,743.126Z" transform="translate(-1067.51 -733.83)" fill="#566577" stroke="#566577" stroke-width="0.2"/>
    </g>
    <g id="Group_37" data-name="Group 37" transform="translate(0.459 0.459)">
      <g id="Group_35" data-name="Group 35" transform="translate(6.663 6.661)">
        <path id="Path_140" data-name="Path 140" d="M1110.132,777.587a.572.572,0,0,1-.4-.977l.573-.572a.572.572,0,1,1,.808.81l-.572.572A.565.565,0,0,1,1110.132,777.587Z" transform="translate(-1109.56 -775.87)" fill="#566577" stroke="#566577" stroke-width="1"/>
      </g>
      <g id="Group_36" data-name="Group 36">
        <path id="Path_141" data-name="Path 141" d="M1070.792,738.256a.572.572,0,0,1-.4-.975l.573-.573a.571.571,0,0,1,.808.808l-.572.572A.565.565,0,0,1,1070.792,738.256Z" transform="translate(-1070.22 -736.54)" fill="#566577" stroke="#566577" stroke-width="1"/>
      </g>
    </g>
  </g>
</svg>
