<svg xmlns="http://www.w3.org/2000/svg" width="10.791" height="10.774" viewBox="0 0 10.791 10.774">
  <g id="Cancel" transform="translate(-8.977 -8.974)">
    <path id="Path_331" data-name="Path 331" d="M19.542,18.421l-4.047-4.048,4.024-3.991a.762.762,0,0,0,0-1.086.782.782,0,0,0-1.1,0L14.4,13.281,10.325,9.2a.777.777,0,0,0-1.1,1.1L13.3,14.375,9.2,18.437a.763.763,0,0,0,0,1.086.781.781,0,0,0,1.1,0l4.09-4.056,4.053,4.053a.776.776,0,1,0,1.1-1.1Z" transform="translate(0 0)" fill="#072040" fill-rule="evenodd"/>
  </g>
</svg>
