<svg xmlns="http://www.w3.org/2000/svg" width="15.112" height="20.355" viewBox="0 0 15.112 20.355">
  <g id="Change-Password" transform="translate(0.152 5.397)">
    <g id="Group_33" data-name="Group 33">
      <path id="Path_138" data-name="Path 138" d="M1043.3,717.015a17.793,17.793,0,0,1-3.568-.363,4.454,4.454,0,0,1-3.472-3.472,17.67,17.67,0,0,1,0-7.135,4.456,4.456,0,0,1,3.472-3.472,17.675,17.675,0,0,1,7.135,0,4.455,4.455,0,0,1,3.472,3.472,17.674,17.674,0,0,1,0,7.135,4.455,4.455,0,0,1-3.472,3.472h0A17.709,17.709,0,0,1,1043.3,717.015Zm3.482-.779h0Zm-3.482-13.183a16.827,16.827,0,0,0-3.4.347,3.609,3.609,0,0,0-2.813,2.813,16.815,16.815,0,0,0,0,6.8,3.609,3.609,0,0,0,2.813,2.813,16.836,16.836,0,0,0,6.8,0,3.609,3.609,0,0,0,2.813-2.813,16.819,16.819,0,0,0,0-6.8,3.609,3.609,0,0,0-2.813-2.813A16.846,16.846,0,0,0,1043.3,703.054Z" transform="translate(-1035.898 -702.208)" fill="#072040" stroke="#072040" stroke-width="0.3"/>
    </g>
    <circle id="Ellipse_89" data-name="Ellipse 89" cx="1.5" cy="1.5" r="1.5" transform="translate(5.904 5.154)" fill="none" stroke="#566577" stroke-width="1.2"/>
    <line id="Line_92" data-name="Line 92" y2="2" transform="translate(7.404 8.654)" fill="none" stroke="#566577" stroke-linecap="round" stroke-width="1.2"/>
    <path id="Path_508" data-name="Path 508" d="M.5,5.947V3.587a3.086,3.086,0,1,1,6.173,0v2.36" transform="translate(3.818 -5.197)" fill="none" stroke="#072040" stroke-miterlimit="10" stroke-width="1.4"/>
  </g>
</svg>
