<svg xmlns="http://www.w3.org/2000/svg" width="18.802" height="18.801" viewBox="0 0 18.802 18.801">
  <g id="Group_1052" data-name="Group 1052" transform="translate(-39.699 -292.699)">
    <g id="Group_1048" data-name="Group 1048" transform="translate(40 293)">
      <path id="Path_138" data-name="Path 138" d="M1040,710.408a9.857,9.857,0,0,1-1.976-.2,2.466,2.466,0,0,1-1.923-1.923,9.791,9.791,0,0,1,0-3.951,2.467,2.467,0,0,1,1.923-1.923,9.788,9.788,0,0,1,3.951,0,2.468,2.468,0,0,1,1.923,1.923,9.791,9.791,0,0,1,0,3.951,2.468,2.468,0,0,1-1.923,1.923h0A9.8,9.8,0,0,1,1040,710.408Zm1.928-.431h0Zm-1.928-7.3a9.316,9.316,0,0,0-1.881.192,2,2,0,0,0-1.558,1.558,9.313,9.313,0,0,0,0,3.763,2,2,0,0,0,1.558,1.558,9.326,9.326,0,0,0,3.763,0,2,2,0,0,0,1.558-1.558,9.313,9.313,0,0,0,0-3.763,2,2,0,0,0-1.558-1.558A9.326,9.326,0,0,0,1040,702.676Z" transform="translate(-1035.898 -702.207)" fill="#566577" stroke="#566577" stroke-width="0.6"/>
    </g>
    <g id="Group_1049" data-name="Group 1049" transform="translate(50 293)">
      <path id="Path_138-2" data-name="Path 138" d="M1040,710.408a9.857,9.857,0,0,1-1.976-.2,2.466,2.466,0,0,1-1.923-1.923,9.791,9.791,0,0,1,0-3.951,2.467,2.467,0,0,1,1.923-1.923,9.788,9.788,0,0,1,3.951,0,2.468,2.468,0,0,1,1.923,1.923,9.791,9.791,0,0,1,0,3.951,2.468,2.468,0,0,1-1.923,1.923h0A9.8,9.8,0,0,1,1040,710.408Zm1.928-.431h0Zm-1.928-7.3a9.316,9.316,0,0,0-1.881.192,2,2,0,0,0-1.558,1.558,9.313,9.313,0,0,0,0,3.763,2,2,0,0,0,1.558,1.558,9.326,9.326,0,0,0,3.763,0,2,2,0,0,0,1.558-1.558,9.313,9.313,0,0,0,0-3.763,2,2,0,0,0-1.558-1.558A9.326,9.326,0,0,0,1040,702.676Z" transform="translate(-1035.898 -702.207)" fill="#072040" stroke="#072040" stroke-width="0.6"/>
    </g>
    <g id="Group_1050" data-name="Group 1050" transform="translate(40 303)">
      <path id="Path_138-3" data-name="Path 138" d="M1040,710.408a9.857,9.857,0,0,1-1.976-.2,2.466,2.466,0,0,1-1.923-1.923,9.791,9.791,0,0,1,0-3.951,2.467,2.467,0,0,1,1.923-1.923,9.788,9.788,0,0,1,3.951,0,2.468,2.468,0,0,1,1.923,1.923,9.791,9.791,0,0,1,0,3.951,2.468,2.468,0,0,1-1.923,1.923h0A9.8,9.8,0,0,1,1040,710.408Zm1.928-.431h0Zm-1.928-7.3a9.316,9.316,0,0,0-1.881.192,2,2,0,0,0-1.558,1.558,9.313,9.313,0,0,0,0,3.763,2,2,0,0,0,1.558,1.558,9.326,9.326,0,0,0,3.763,0,2,2,0,0,0,1.558-1.558,9.313,9.313,0,0,0,0-3.763,2,2,0,0,0-1.558-1.558A9.326,9.326,0,0,0,1040,702.676Z" transform="translate(-1035.898 -702.207)" fill="#072040" stroke="#072040" stroke-width="0.6"/>
    </g>
    <g id="Group_1051" data-name="Group 1051" transform="translate(50 303)">
      <path id="Path_138-4" data-name="Path 138" d="M1040,710.408a9.857,9.857,0,0,1-1.976-.2,2.466,2.466,0,0,1-1.923-1.923,9.791,9.791,0,0,1,0-3.951,2.467,2.467,0,0,1,1.923-1.923,9.788,9.788,0,0,1,3.951,0,2.468,2.468,0,0,1,1.923,1.923,9.791,9.791,0,0,1,0,3.951,2.468,2.468,0,0,1-1.923,1.923h0A9.8,9.8,0,0,1,1040,710.408Zm1.928-.431h0Zm-1.928-7.3a9.316,9.316,0,0,0-1.881.192,2,2,0,0,0-1.558,1.558,9.313,9.313,0,0,0,0,3.763,2,2,0,0,0,1.558,1.558,9.326,9.326,0,0,0,3.763,0,2,2,0,0,0,1.558-1.558,9.313,9.313,0,0,0,0-3.763,2,2,0,0,0-1.558-1.558A9.326,9.326,0,0,0,1040,702.676Z" transform="translate(-1035.898 -702.207)" fill="#072040" stroke="#072040" stroke-width="0.6"/>
    </g>
    <path id="Path_315" data-name="Path 315" d="M-18134.338-9114.215l-1.41,2.712.869,3.405,4.57.791,1.377-1.776a41.421,41.421,0,0,1,.121-4.564l-2.252-.881Z" transform="translate(18176 9408)" fill="#566577" stroke="#566577" stroke-width="1"/>
  </g>
</svg>
