<svg xmlns="http://www.w3.org/2000/svg" width="19.987" height="19.987" viewBox="0 0 19.987 19.987">
  <g id="Layer_2" transform="translate(-2 -2)">
    <g id="Group_1107" data-name="Group 1107" transform="translate(2 2)">
      <path id="Path_341" data-name="Path 341" d="M11.994,2a9.994,9.994,0,1,0,9.994,9.994A10,10,0,0,0,11.994,2Zm0,18.322a8.328,8.328,0,1,1,8.328-8.328A8.331,8.331,0,0,1,11.994,20.322Z" transform="translate(-2 -2)" fill="#f2b40c"/>
      <path id="Path_342" data-name="Path 342" d="M8.333,6.85a.825.825,0,0,0-.833.833v5.663a.833.833,0,0,0,1.666,0V7.683A.835.835,0,0,0,8.333,6.85Z" transform="translate(1.661 1.228)" fill="#f2b40c"/>
      <path id="Path_343" data-name="Path 343" d="M8.349,4.8a.89.89,0,0,0-.849.866V5.8a.8.8,0,0,0,.816.8h.017a.87.87,0,0,0,.833-.833V5.584A.761.761,0,0,0,8.349,4.8Z" transform="translate(1.661 -0.137)" fill="#f2b40c"/>
    </g>
  </g>
</svg>
