<svg xmlns="http://www.w3.org/2000/svg" width="17.482" height="20.146" viewBox="0 0 17.482 20.146">
  <g id="_8150282_ecommerce_bill_invoice_store_money_icon" data-name="8150282_ecommerce_bill_invoice_store_money_icon" transform="translate(-4.32 -3.531)">
    <path id="Path_361" data-name="Path 361" d="M21.168,4.271a1.262,1.262,0,0,0-1.388.252l-.789.742a.584.584,0,0,1-.773,0l-1.751-1.5a1.278,1.278,0,0,0-1.688.189l-1.089,1.2a.568.568,0,0,1-.426.189h0a.568.568,0,0,1-.41-.174l-1.231-1.2a1.246,1.246,0,0,0-.915-.394h0a1.278,1.278,0,0,0-.9.363L8.467,5.3a.568.568,0,0,1-.773,0l-1.12-.9A1.278,1.278,0,0,0,5.2,4.271,1.262,1.262,0,0,0,4.46,5.438V20.979a2.761,2.761,0,0,0,2.761,2.7H19.18a2.761,2.761,0,0,0,2.761-2.761V5.486A1.262,1.262,0,0,0,21.168,4.271Zm-.41,16.6a1.578,1.578,0,0,1-1.578,1.578H7.221a1.578,1.578,0,0,1-1.578-1.578V5.375H5.8l1.089.836a1.751,1.751,0,0,0,2.367-.079l1.5-1.341,1.152,1.2a1.814,1.814,0,0,0,1.278.536h0a1.846,1.846,0,0,0,1.278-.568l1.231-1.215,1.751,1.578a1.767,1.767,0,0,0,2.367,0l.884-.773a.11.11,0,0,1,0,.095Z" transform="translate(-0.139)" fill="#072040"/>
    <text id="_" data-name="$" transform="translate(10.321 17.677)" fill="#566577" font-size="10" font-family="Inter-Regular, Inter"><tspan x="0" y="0">$</tspan></text>
  </g>
</svg>
