<svg xmlns="http://www.w3.org/2000/svg" width="16.874" height="18.382" viewBox="0 0 16.874 18.382">
  <g id="Layer_2" transform="translate(-84.13 -57.4)">
    <g id="Group_1045" data-name="Group 1045" transform="translate(84.13 57.4)">
      <g id="Group_1043" data-name="Group 1043" transform="translate(0 2.872)">
        <path id="Path_310" data-name="Path 310" d="M97.377,143.779a.785.785,0,1,0-.9,1.29,6.866,6.866,0,1,1-7.827,0,.785.785,0,1,0-.9-1.29,8.437,8.437,0,1,0,9.619,0Z" transform="translate(-84.13 -143.638)" fill="#072040"/>
      </g>
      <g id="Group_1044" data-name="Group 1044" transform="translate(7.652 0)">
        <path id="Path_311" data-name="Path 311" d="M240.785,64.738a.785.785,0,0,0,.785-.785V53.185a.785.785,0,1,0-1.571,0V63.952A.785.785,0,0,0,240.785,64.738Z" transform="translate(-240 -52.4)" fill="#566577"/>
      </g>
    </g>
  </g>
</svg>
