<svg xmlns="http://www.w3.org/2000/svg" width="20.002" height="20.002" viewBox="0 0 20.002 20.002">
  <g id="_2202248_account_add_avatar_human_man_icon" data-name="2202248_account_add_avatar_human_man_icon" transform="translate(-1.75 -1.75)">
    <path id="Path_354" data-name="Path 354" d="M17.319,12.637A5.319,5.319,0,1,0,12,7.319,5.334,5.334,0,0,0,17.319,12.637Zm0-9.751a4.432,4.432,0,1,1-4.432,4.432A4.445,4.445,0,0,1,17.319,2.886Z" transform="translate(-5.568)" fill="#072040"/>
    <path id="Path_354_-_Outline" data-name="Path 354 - Outline" d="M17.319,12.887a5.569,5.569,0,1,1,5.569-5.569A5.575,5.575,0,0,1,17.319,12.887Zm0-10.637a5.069,5.069,0,1,0,5.069,5.069A5.074,5.074,0,0,0,17.319,2.25Zm0,9.751A4.682,4.682,0,1,1,22,7.319,4.688,4.688,0,0,1,17.319,12Zm0-8.865A4.182,4.182,0,1,0,21.5,7.319,4.187,4.187,0,0,0,17.319,3.136Z" transform="translate(-5.568)" fill="#072040"/>
    <path id="Path_355" data-name="Path 355" d="M15.74,28H7.762A5.75,5.75,0,0,0,2,33.762v2.216h.886V33.762a4.861,4.861,0,0,1,4.875-4.875H15.74Z" transform="translate(0 -14.476)" fill="#072040"/>
    <path id="Path_355_-_Outline" data-name="Path 355 - Outline" d="M7.762,27.75H15.99v1.386H7.762a4.631,4.631,0,0,0-4.625,4.625v2.466H1.75V33.762A6,6,0,0,1,7.762,27.75Zm7.728.5H7.762A5.518,5.518,0,0,0,2.25,33.762v1.966h.386V33.762a5.111,5.111,0,0,1,5.125-5.125H15.49Z" transform="translate(0 -14.476)" fill="#072040"/>
    <path id="Path_356" data-name="Path 356" d="M38.205,34.659H35.546V32h-.886v2.659H32v.886h2.659v2.659h.886V35.546h2.659Z" transform="translate(-16.703 -16.703)" fill="#566577"/>
    <path id="Path_356_-_Outline" data-name="Path 356 - Outline" d="M34.409,31.75H35.8v2.659h2.659V35.8H35.8v2.659H34.409V35.8H31.75V34.409h2.659Zm.886.5h-.386v2.659H32.25V35.3h2.659v2.659H35.3V35.3h2.659v-.386H35.3Z" transform="translate(-16.703 -16.703)" fill="#566577"/>
  </g>
</svg>
