<svg xmlns="http://www.w3.org/2000/svg" width="18.607" height="19.542" viewBox="0 0 18.607 19.542">
  <g id="_3319443_manager_icon" data-name="3319443_manager_icon" transform="translate(-12.551 -12.285)">
    <g id="Group_1130" data-name="Group 1130" transform="translate(18.887 13.765)">
      <g id="Group_1129" data-name="Group 1129" transform="translate(-0.001 0)">
        <path id="Path_357" data-name="Path 357" d="M24.467,9.2a4.531,4.531,0,0,1-3.381,7.634,4.76,4.76,0,0,1-1.486-.256,4.413,4.413,0,0,0,3.33,1.486,4.537,4.537,0,0,0,4.611-4.508A4.66,4.66,0,0,0,24.467,9.2Z" transform="translate(-19.6 -9.2)" fill="#566577"/>
      </g>
    </g>
    <g id="Group_1132" data-name="Group 1132" transform="translate(16.736 12.534)">
      <g id="Group_1131" data-name="Group 1131" transform="translate(-0.001 0.001)">
        <path id="Path_358" data-name="Path 358" d="M20.267,16.585h-.051A4.7,4.7,0,0,1,16.783,15.1a4.891,4.891,0,0,1,3.484-8.3h.051a4.9,4.9,0,0,1,4.816,4.918h0A4.865,4.865,0,0,1,20.267,16.585Zm0-9.119a4.264,4.264,0,0,0-4.252,4.2,4.285,4.285,0,0,0,4.252,4.3h.051a4.264,4.264,0,0,0,4.252-4.2h0a4.3,4.3,0,0,0-4.3-4.3Z" transform="translate(-15.4 -6.8)" fill="#072040"/>
        <path id="Path_358_-_Outline" data-name="Path 358 - Outline" d="M20.267,16.835h-.051A4.937,4.937,0,0,1,16.6,15.272a5.143,5.143,0,0,1,.076-7.24A5.064,5.064,0,0,1,20.267,6.55h.051a5.172,5.172,0,0,1,3.6,1.554,4.989,4.989,0,0,1,1.462,3.619A5.122,5.122,0,0,1,20.267,16.835Zm.046-9.785h-.046a4.641,4.641,0,0,0-3.3,7.878,4.442,4.442,0,0,0,3.251,1.408h.051a4.622,4.622,0,0,0,4.617-4.617,4.5,4.5,0,0,0-1.318-3.264A4.672,4.672,0,0,0,20.313,7.05Zm0,9.171h-.051a4.535,4.535,0,0,1-4.5-4.554A4.386,4.386,0,0,1,17.1,8.524a4.5,4.5,0,0,1,3.166-1.308h.038A4.546,4.546,0,0,1,24.82,11.77a4.386,4.386,0,0,1-1.336,3.143A4.5,4.5,0,0,1,20.318,16.221Zm-.051-8.5a4.03,4.03,0,0,0-4,3.951,3.988,3.988,0,0,0,1.156,2.846,3.91,3.91,0,0,0,2.846,1.208h.051a4,4,0,1,0-.051-8Z" transform="translate(-15.4 -6.8)" fill="#072040"/>
      </g>
    </g>
    <g id="Group_1136" data-name="Group 1136" transform="translate(12.8 23.74)">
      <g id="Group_1135" data-name="Group 1135" transform="translate(0 0)">
        <path id="Path_360" data-name="Path 360" d="M29.943,34.788V33.3a5.016,5.016,0,0,0-2.3-4,10.079,10.079,0,0,0-5.714-1.69h-.074A10.432,10.432,0,0,0,16.139,29.2a4.929,4.929,0,0,0-2.449,3.944v1.588H12.8V33.1a5.349,5.349,0,0,1,2.746-4.405A11.373,11.373,0,0,1,21.928,26.9a10.875,10.875,0,0,1,6.382,1.9,5.482,5.482,0,0,1,2.6,4.405v1.485h-.965Z" transform="translate(-12.8 -26.9)" fill="#072040"/>
        <path id="Path_360_-_Outline" data-name="Path 360 - Outline" d="M13.941,34.987H12.55V33.1a5.56,5.56,0,0,1,2.858-4.614,11.568,11.568,0,0,1,6.52-1.834,11.07,11.07,0,0,1,6.528,1.942,5.706,5.706,0,0,1,2.7,4.608v1.735H29.943v-.148h-.25V33.3A4.751,4.751,0,0,0,27.5,29.512a9.876,9.876,0,0,0-5.57-1.644h-.074a10.244,10.244,0,0,0-5.575,1.545,4.7,4.7,0,0,0-2.339,3.737Zm-.891-.5h.391V33.149A5.182,5.182,0,0,1,16,29l0,0a10.747,10.747,0,0,1,5.852-1.629h.074A10.379,10.379,0,0,1,27.784,29.1l0,0a5.236,5.236,0,0,1,2.4,4.2v1.133h.465V33.2A5.23,5.23,0,0,0,28.164,29a10.575,10.575,0,0,0-6.236-1.848,11.069,11.069,0,0,0-6.24,1.748,5.091,5.091,0,0,0-2.638,4.2Z" transform="translate(-12.8 -26.9)" fill="#072040"/>
      </g>
    </g>
    <g id="Group_1138" data-name="Group 1138" transform="translate(15.985 30.533)">
      <g id="Group_1137" data-name="Group 1137">
        <rect id="Rectangle_864" data-name="Rectangle 864" width="3.043" height="0.891" fill="#566577"/>
        <path id="Rectangle_864_-_Outline" data-name="Rectangle 864 - Outline" d="M-.15-.15H3.193V1.041H-.15Zm3.043.3H.15V.741H2.893Z" fill="#566577"/>
      </g>
    </g>
    <g id="Group_1140" data-name="Group 1140" transform="translate(21.334 26.451)">
      <g id="Group_1139" data-name="Group 1139" transform="translate(0)">
        <rect id="Rectangle_865" data-name="Rectangle 865" width="0.891" height="4.972" fill="#566577"/>
        <path id="Rectangle_865_-_Outline" data-name="Rectangle 865 - Outline" d="M-.15-.15H1.041V5.122H-.15Zm.891.3H.15V4.822H.741Z" fill="#566577"/>
      </g>
    </g>
  </g>
</svg>
