<svg xmlns="http://www.w3.org/2000/svg" width="21.512" height="20.539" viewBox="0 0 21.512 20.539">
  <g id="_7853764_approved_kashifarif_check_mark_accept_icon_2_" data-name="7853764_approved_kashifarif_check_mark_accept_icon (2)" transform="translate(0.051 -0.498)">
    <g id="Group_1127" data-name="Group 1127" transform="translate(0.7 1.248)">
      <g id="Group_1126" data-name="Group 1126">
        <g id="Group_1125" data-name="Group 1125">
          <path id="Path_352" data-name="Path 352" d="M8.024.5A4.351,4.351,0,0,1,9.607.912a3.676,3.676,0,0,0,1.187.34A3.449,3.449,0,0,0,11.858.935,4.584,4.584,0,0,1,13.535.5,2.11,2.11,0,0,1,14.09.57a3.175,3.175,0,0,1,1.723,1.637,3.646,3.646,0,0,0,.665.885,3.113,3.113,0,0,0,1.069.375,3.265,3.265,0,0,1,1.985,1q.017.022.032.044a3.494,3.494,0,0,1,.341,2.23,3.635,3.635,0,0,0,.019,1.07.749.749,0,0,1,.02.081,2.773,2.773,0,0,0,.6.952,3.164,3.164,0,0,1,.92,1.927,3.208,3.208,0,0,1-.98,1.984,3.2,3.2,0,0,0-.64.958,4.031,4.031,0,0,0-.024,1.165,3.2,3.2,0,0,1-.366,2.187l-.008.01a3.518,3.518,0,0,1-2.077,1.055,3.729,3.729,0,0,0-1.021.348,3.169,3.169,0,0,0-.666.86,3.455,3.455,0,0,1-1.619,1.611l-.041.014a1.9,1.9,0,0,1-.545.078,4.352,4.352,0,0,1-1.582-.414,3.676,3.676,0,0,0-1.187-.34,3.449,3.449,0,0,0-1.064.317,4.584,4.584,0,0,1-1.677.437,2.11,2.11,0,0,1-.555-.072,3.175,3.175,0,0,1-1.723-1.637,3.646,3.646,0,0,0-.665-.885,3.113,3.113,0,0,0-1.069-.375,3.265,3.265,0,0,1-1.985-1q-.017-.022-.032-.044a3.494,3.494,0,0,1-.341-2.23,3.635,3.635,0,0,0-.019-1.07,3.126,3.126,0,0,0-.581-.835A3.41,3.41,0,0,1-.05,10.768,3.208,3.208,0,0,1,.93,8.784a3.2,3.2,0,0,0,.64-.958,4.031,4.031,0,0,0,.024-1.165,3.2,3.2,0,0,1,.366-2.187q.019-.025.039-.048A3.893,3.893,0,0,1,4.112,3.412a3.779,3.779,0,0,0,1.041-.351,3.169,3.169,0,0,0,.666-.86A3.454,3.454,0,0,1,7.438.589L7.479.576A1.9,1.9,0,0,1,8.024.5Zm2.769,2.254A4.772,4.772,0,0,1,9.049,2.3,3.431,3.431,0,0,0,8.024,2a.431.431,0,0,0-.1.009A2.592,2.592,0,0,0,7.09,3a4.088,4.088,0,0,1-1.1,1.311,4.719,4.719,0,0,1-1.516.56A3.03,3.03,0,0,0,3.145,5.4,2.841,2.841,0,0,0,3.09,6.561,5.024,5.024,0,0,1,3.017,8.22a4.235,4.235,0,0,1-.935,1.523c-.3.356-.633.76-.633,1.024,0,.339.351.756.691,1.159a4.016,4.016,0,0,1,.871,1.37,4.55,4.55,0,0,1,.079,1.6,2.823,2.823,0,0,0,.078,1.274,2.46,2.46,0,0,0,1.126.435,4.156,4.156,0,0,1,1.647.651,4.626,4.626,0,0,1,1.019,1.279c.275.444.559.9.842.98a.6.6,0,0,0,.16.019,3.526,3.526,0,0,0,1.115-.328,4.406,4.406,0,0,1,1.626-.426,4.773,4.773,0,0,1,1.744.447,3.431,3.431,0,0,0,1.025.307.431.431,0,0,0,.1-.009,2.592,2.592,0,0,0,.839-.99,4.088,4.088,0,0,1,1.1-1.311A4.678,4.678,0,0,1,17,16.671a2.591,2.591,0,0,0,1.25-.515,2.633,2.633,0,0,0,.066-1.183,5.024,5.024,0,0,1,.073-1.659,4.235,4.235,0,0,1,.935-1.523c.3-.356.633-.76.633-1.024s-.3-.627-.589-.988a3.855,3.855,0,0,1-.9-1.581,4.682,4.682,0,0,1-.068-1.562,2.823,2.823,0,0,0-.078-1.274A2.46,2.46,0,0,0,17.2,4.928a4.156,4.156,0,0,1-1.647-.651A4.626,4.626,0,0,1,14.537,3c-.275-.444-.559-.9-.842-.98A.6.6,0,0,0,13.535,2a3.526,3.526,0,0,0-1.115.328A4.406,4.406,0,0,1,10.794,2.752Z" transform="translate(-0.7 -1.248)" fill="#072040"/>
        </g>
      </g>
    </g>
    <g id="Group_1128" data-name="Group 1128" transform="translate(6.893 8.257)">
      <path id="Path_353" data-name="Path 353" d="M7.9,11.9l2.51,2.417L15.524,9.3" transform="translate(-7.9 -9.3)" fill="none" stroke="#566577" stroke-linecap="round" stroke-linejoin="round" stroke-miterlimit="10" stroke-width="1.5"/>
    </g>
  </g>
</svg>
