<svg xmlns="http://www.w3.org/2000/svg" width="20.383" height="20.385" viewBox="0 0 20.383 20.385">
  <g id="Group_1143" data-name="Group 1143" transform="translate(19538.162 10053.522)">
    <g id="_1976051_config_configuration_settings_icon" data-name="1976051_config_configuration_settings_icon" transform="translate(-19540.15 -10055.637)">
      <path id="Path_350" data-name="Path 350" d="M21.839,10.65l.372-1L21.15,7.091l-.968-.442-1.121.374-.28-.088a8.471,8.471,0,0,0-1.228-1.226l-.088-.282L17.838,4.3,17.4,3.336,14.835,2.275l-1,.373-.53,1.058-.261.136a8.447,8.447,0,0,0-1.735,0L11.052,3.7l-.529-1.056-1-.374L6.965,3.336,6.523,4.3,6.9,5.425l-.089.281A8.421,8.421,0,0,0,5.582,6.934L5.3,7.021,4.18,6.648l-.968.442L2.15,9.652l.372,1,1.058.53.136.261a8.519,8.519,0,0,0,0,1.735l-.135.261-1.056.529-.372,1,1.061,2.561.968.442,1.12-.373.28.088a8.471,8.471,0,0,0,1.228,1.226l.088.28-.374,1.122.443.968,2.561,1.061,1-.373.529-1.057.261-.136a8.456,8.456,0,0,0,1.736,0l.26.136.529,1.056,1,.372L17.4,21.276l.442-.968-.373-1.12.088-.28a8.471,8.471,0,0,0,1.226-1.228l.28-.088,1.122.374.968-.442,1.061-2.562-.372-1-1.058-.53-.136-.26a8.529,8.529,0,0,0,0-1.736l.135-.261Zm-1.75-.178-.41.786.017.145a7.525,7.525,0,0,1,0,1.8l-.017.146.411.787,1,.5.113.3-.778,1.877-.294.134L19.067,16.6l-.847.266-.091.115a7.521,7.521,0,0,1-1.274,1.277l-.115.09-.266.847.352,1.058-.134.294-1.877.778-.3-.113-.5-1-.786-.411-.145.017a7.533,7.533,0,0,1-1.8,0l-.145-.017-.787.411-.5,1-.3.113-1.877-.777-.134-.294.352-1.059-.266-.847L7.5,18.257a7.527,7.527,0,0,1-1.277-1.275l-.09-.115L5.292,16.6l-1.058.353-.294-.134-.778-1.877.113-.3.861-.432.154-.1.393-.752-.017-.145a7.525,7.525,0,0,1,0-1.8l.017-.146-.411-.787-1-.5-.114-.3.778-1.877.294-.134,1.059.352.847-.266L6.23,7.63A7.521,7.521,0,0,1,7.5,6.353l.115-.091.265-.847L7.533,4.36l.134-.294,1.877-.778.3.113.5,1,.786.411.145-.017a7.525,7.525,0,0,1,1.8,0l.146.017.787-.412.5-1,.3-.113,1.877.778.134.294-.352,1.059.265.847.115.091A7.526,7.526,0,0,1,18.133,7.63l.09.115.847.266,1.058-.352.294.134L21.2,9.67l-.113.3Z" transform="translate(0 0)" fill="#072040"/>
      <path id="Path_350_-_Outline" data-name="Path 350 - Outline" d="M9.524,2.114l1.107.415.533,1.065.178.092a8.635,8.635,0,0,1,1.676,0L13.2,3.6l.534-1.067,1.108-.414,2.67,1.106L18,4.3l-.377,1.132.06.193a8.634,8.634,0,0,1,1.186,1.184l.191.06,1.131-.377,1.076.491,1.106,2.67-.413,1.109-1.066.532-.092.178a8.691,8.691,0,0,1,0,1.677l.093.177,1.068.534.413,1.109-1.106,2.671-1.076.491-1.132-.377-.191.06a8.633,8.633,0,0,1-1.184,1.186l-.06.191L18,20.316l-.491,1.076L14.838,22.5l-1.108-.413L13.2,21.02l-.177-.093a8.647,8.647,0,0,1-1.677,0l-.178.093-.533,1.066L9.524,22.5l-2.67-1.106-.492-1.076.377-1.132-.06-.191A8.633,8.633,0,0,1,5.493,17.81L5.3,17.75l-1.13.376L3.1,17.635,1.99,14.965,2.4,13.857l1.065-.533.092-.178a8.68,8.68,0,0,1,0-1.676l-.093-.178L2.4,10.757,1.989,9.649,3.1,6.978l1.076-.491L5.3,6.864l.192-.06A8.577,8.577,0,0,1,6.678,5.618l.061-.192L6.362,4.3,6.853,3.22Zm7.76,1.338L14.832,2.436l-.886.331-.525,1.049L13.078,4l-.045,0a8.335,8.335,0,0,0-1.7,0l-.045,0-.344-.179-.524-1.047-.886-.332L7.077,3.452l-.393.861.37,1.11-.117.37L6.9,5.822A8.275,8.275,0,0,0,5.7,7.028l-.029.035L5.3,7.179l-1.111-.37L3.327,7.2,2.311,9.655l.33.887,1.049.525.18.344,0,.045a8.378,8.378,0,0,0,0,1.7l0,.045-.179.344-1.047.524-.33.887,1.016,2.452.861.393,1.11-.369.369.115.028.035A8.331,8.331,0,0,0,6.9,18.79l.035.028.116.369L6.684,20.3l.394.861L9.53,22.177l.887-.331.524-1.048.344-.18.045,0a8.345,8.345,0,0,0,1.705,0l.045,0,.342.18.524,1.046.886.33,2.452-1.016.393-.861-.369-1.11.115-.369.035-.028a8.33,8.33,0,0,0,1.2-1.206l.028-.035.369-.116,1.112.37.861-.393,1.016-2.453-.33-.887-1.048-.525-.18-.343,0-.045a8.39,8.39,0,0,0,0-1.706l0-.045.179-.344,1.048-.523.33-.887L21.034,7.2l-.861-.393-1.111.37-.369-.116-.028-.035a8.331,8.331,0,0,0-1.206-1.2L17.422,5.8l-.115-.371.37-1.112ZM14.82,3.125l1.986.823.183.4-.356,1.069.236.757.079.062a7.676,7.676,0,0,1,1.3,1.3l.061.079.756.237L20.136,7.5l.4.183.823,1.986-.154.414-1.007.5-.366.7.012.1a7.674,7.674,0,0,1,0,1.839l-.012.1.367.7,1.007.5.154.414-.823,1.986-.4.183-1.069-.356-.757.237-.062.079a7.664,7.664,0,0,1-1.3,1.3l-.079.061-.237.756.356,1.068-.183.4-1.986.823-.414-.154-.5-1.006-.7-.367-.1.012a7.719,7.719,0,0,1-1.84,0l-.1-.012-.7.367-.5,1.008-.414.154-1.986-.822-.183-.4.356-1.069-.237-.757-.079-.062a7.677,7.677,0,0,1-1.3-1.3L6.048,17l-.755-.237-1.068.357-.4-.183L3,14.946l.154-.414.906-.454L4.174,14l.354-.676-.012-.1a7.675,7.675,0,0,1,0-1.839l.012-.1-.367-.7-1.007-.5L3,9.667l.823-1.986.4-.183,1.069.356.757-.237.062-.079a7.673,7.673,0,0,1,1.3-1.3l.079-.062.236-.757L7.372,4.351l.183-.4,1.986-.823.414.154.5,1.006.7.367.1-.012a7.71,7.71,0,0,1,1.839,0l.1.012.7-.368.5-1.009ZM16.582,4.18l-1.768-.733-.193.072-.5.989-.871.456-.192-.023a7.408,7.408,0,0,0-1.768,0l-.191.023-.87-.455L9.74,3.52l-.193-.072-1.768.733-.085.187.348,1.046-.293.938L7.6,6.471A7.374,7.374,0,0,0,6.349,7.723l-.12.152-.938.294L4.242,7.82l-.187.085L3.322,9.673l.073.193.989.494.455.871-.023.192a7.375,7.375,0,0,0,0,1.768l.023.191-.432.827-.2.134-.809.405-.072.193.733,1.768.187.085,1.048-.35.937.294.118.152A7.376,7.376,0,0,0,7.6,18.138l.152.12.294.938-.349,1.049.085.187,1.768.732.193-.072.494-.989.871-.455.191.023a7.416,7.416,0,0,0,1.769,0l.191-.023.87.455.494.987.193.072,1.768-.733.085-.187L16.317,19.2l.294-.938.152-.118a7.364,7.364,0,0,0,1.248-1.251l.12-.152.938-.294,1.049.349.187-.085.733-1.768-.072-.193-.988-.494-.455-.871.023-.192a7.375,7.375,0,0,0,0-1.768l-.023-.191.454-.87.989-.493.072-.193-.733-1.768-.187-.085-1.048.349-.938-.294-.118-.152a7.376,7.376,0,0,0-1.251-1.249l-.152-.12-.293-.938.349-1.049Z" transform="translate(0 0)" fill="#072040"/>
    </g>
    <g id="Group_1142" data-name="Group 1142" transform="translate(-19577.262 -10430.393)">
      <ellipse id="Ellipse_27" data-name="Ellipse 27" cx="2.339" cy="2.339" rx="2.339" ry="2.339" transform="translate(47.292 383.472)" fill="none" stroke="#566577" stroke-miterlimit="10" stroke-width="1"/>
      <path id="Path_351" data-name="Path 351" d="M16,161.691a3.593,3.593,0,0,1,6.1,0" transform="translate(30.74 228.413)" fill="none" stroke="#566577" stroke-linecap="round" stroke-linejoin="round" stroke-width="1"/>
    </g>
  </g>
</svg>
