<svg id="Group_1054" data-name="Group 1054" xmlns="http://www.w3.org/2000/svg" width="15.156" height="17.033" viewBox="0 0 15.156 17.033">
  <g id="_1" data-name="1" transform="translate(6 0)">
    <path id="Path_326" data-name="Path 326" d="M153.748,67.236a.639.639,0,0,0,.452-.187l7.877-7.877a.639.639,0,0,0,0-.9L154.2,50.391a.639.639,0,0,0-.9.9l7.425,7.425L153.3,66.145a.639.639,0,0,0,.452,1.091Z" transform="translate(-153.108 -50.204)" fill="#a8bad3"/>
  </g>
  <g id="_1-2" data-name="1" transform="translate(0 0)">
    <path id="Path_326-2" data-name="Path 326" d="M153.748,67.236a.639.639,0,0,0,.452-.187l7.877-7.877a.639.639,0,0,0,0-.9L154.2,50.391a.639.639,0,0,0-.9.9l7.425,7.425L153.3,66.145a.639.639,0,0,0,.452,1.091Z" transform="translate(-153.108 -50.204)" fill="#a8bad3"/>
  </g>
</svg>
