<svg xmlns="http://www.w3.org/2000/svg" width="24.813" height="27.457" viewBox="0 0 24.813 27.457">
  <g id="Layer_2" transform="translate(-6.177 -5.35)">
    <g id="Group_1042" data-name="Group 1042" transform="translate(6.863 6)">
      <path id="Path_63" data-name="Path 63" d="M31.625,56.3a2.661,2.661,0,0,1-2.662,2.662A2.692,2.692,0,0,1,26.3,56.3" transform="translate(-17.221 -32.805)" fill="none" stroke="#a8bad3" stroke-linecap="round" stroke-linejoin="round" stroke-miterlimit="10" stroke-width="1.3"/>
      <path id="Path_64" data-name="Path 64" d="M11.178,13.772C11.738,10.735,14.868,8.4,18.6,8.4h0c4.157,0,7.52,2.849,7.52,6.4v5.745a2.582,2.582,0,0,0,.327,1.168l3.5,5.465c1.028,1.588-.327,3.55-2.522,3.55H9.73c-2.149,0-3.55-1.962-2.522-3.55l3.5-5.465a2.108,2.108,0,0,0,.327-1.168v-3.5" transform="translate(-6.863 -7.279)" fill="none" stroke="#a8bad3" stroke-linecap="round" stroke-linejoin="round" stroke-miterlimit="10" stroke-width="1.3"/>
      <line id="Line_35" data-name="Line 35" y1="0.701" transform="translate(11.741)" fill="none" stroke="#a8bad3" stroke-linecap="round" stroke-linejoin="round" stroke-miterlimit="10" stroke-width="1.3"/>
      <path id="Path_65" data-name="Path 65" d="M42.4,21.5a3.89,3.89,0,0,1,.14,1.028" transform="translate(-25.801 -14.26)" fill="none" stroke="#a8bad3" stroke-linecap="round" stroke-linejoin="round" stroke-miterlimit="10" stroke-width="1.3"/>
      <path id="Path_66" data-name="Path 66" d="M24.9,14.941a5.95,5.95,0,0,1,3.083-.841h0a5.741,5.741,0,0,1,3.877,1.448" transform="translate(-16.475 -10.317)" fill="none" stroke="#a8bad3" stroke-linecap="round" stroke-linejoin="round" stroke-miterlimit="10" stroke-width="1.3"/>
      <line id="Line_36" data-name="Line 36" x1="4.764" transform="translate(14.59 13.779)" fill="none" stroke="#a8bad3" stroke-linecap="round" stroke-linejoin="round" stroke-miterlimit="10" stroke-width="1.3"/>
      <line id="Line_37" data-name="Line 37" x1="1.448" transform="translate(10.293 13.919)" fill="none" stroke="#a8bad3" stroke-linecap="round" stroke-linejoin="round" stroke-miterlimit="10" stroke-width="1.3"/>
    </g>
  </g>
</svg>
