<svg xmlns="http://www.w3.org/2000/svg" width="15.156" height="17.033" viewBox="0 0 15.156 17.033">
  <g id="Group_1053" data-name="Group 1053" transform="translate(-1249.999 -616)">
    <g id="_1" data-name="1" transform="translate(1096.891 565.796)">
      <path id="Path_326" data-name="Path 326" d="M161.624,67.236a.639.639,0,0,1-.452-.187L153.3,59.172a.639.639,0,0,1,0-.9l7.877-7.877a.639.639,0,0,1,.9.9l-7.425,7.425,7.425,7.425a.639.639,0,0,1-.452,1.091Z" transform="translate(0 0)" fill="#a8bad3"/>
    </g>
    <g id="_1-2" data-name="1" transform="translate(1102.891 565.796)">
      <path id="Path_326-2" data-name="Path 326" d="M161.624,67.236a.639.639,0,0,1-.452-.187L153.3,59.172a.639.639,0,0,1,0-.9l7.877-7.877a.639.639,0,0,1,.9.9l-7.425,7.425,7.425,7.425a.639.639,0,0,1-.452,1.091Z" transform="translate(0 0)" fill="#a8bad3"/>
    </g>
  </g>
</svg>
