<svg xmlns="http://www.w3.org/2000/svg" width="19.998" height="19.998" viewBox="0 0 19.998 19.998">
  <g id="Group_1089" data-name="Group 1089" transform="translate(-40 -468.001)">
    <g id="registered" transform="translate(40 468)">
      <path id="Subtraction_2" data-name="Subtraction 2" d="M18828,7123a10,10,0,1,1,10-10A9.934,9.934,0,0,1,18828,7123Zm0-18.792a8.793,8.793,0,1,0,8.793,8.793A8.8,8.8,0,0,0,18828,7104.206Z" transform="translate(-18817.998 -7102.999)" fill="#072040"/>
    </g>
    <g id="Group_112" data-name="Group 112" transform="translate(45 473)">
      <g id="Group_110" data-name="Group 110" transform="translate(0 6.091)">
        <path id="Path_186" data-name="Path 186" d="M1974.22,1688.762a.286.286,0,0,1-.28-.229,2.593,2.593,0,0,0-2.021-2.021,12.028,12.028,0,0,0-4.859,0,2.592,2.592,0,0,0-2.021,2.021.287.287,0,1,1-.562-.114,3.165,3.165,0,0,1,2.468-2.468,12.577,12.577,0,0,1,5.09,0,3.165,3.165,0,0,1,2.468,2.468.286.286,0,0,1-.283.344Z" transform="translate(-1964.472 -1685.69)" fill="#566577" stroke="#566577" stroke-width="0.6"/>
      </g>
      <g id="Group_111" data-name="Group 111" transform="translate(2.367 -1)">
        <path id="Path_187" data-name="Path 187" d="M1994.99,1619.29a2.65,2.65,0,1,1,2.649-2.65A2.652,2.652,0,0,1,1994.99,1619.29Zm0-4.726a2.076,2.076,0,1,0,2.076,2.076A2.078,2.078,0,0,0,1994.99,1614.564Z" transform="translate(-1992.34 -1613.99)" fill="#566577" stroke="#566577" stroke-width="0.6"/>
      </g>
    </g>
  </g>
</svg>
