<svg id="Project-Overview" xmlns="http://www.w3.org/2000/svg" xmlns:xlink="http://www.w3.org/1999/xlink" width="20.205" height="20.205" viewBox="0 0 20.205 20.205">
  <defs>
    <clipPath id="clip-path">
      <rect id="Rectangle_916" data-name="Rectangle 916" width="20.205" height="20.205" transform="translate(0 0)" fill="none"/>
    </clipPath>
  </defs>
  <g id="Group_1242" data-name="Group 1242" clip-path="url(#clip-path)">
    <circle id="Ellipse_90" data-name="Ellipse 90" cx="5.345" cy="5.345" r="5.345" transform="translate(4.759 4.758)" fill="none" stroke="#435365" stroke-linecap="round" stroke-width="1.4"/>
    <line id="Line_95" data-name="Line 95" x2="4.122" y2="4.122" transform="translate(14.081 14.092)" fill="none" stroke="#435365" stroke-linecap="round" stroke-width="1.4"/>
    <path id="Path_511" data-name="Path 511" d="M14.693,18.494a22.743,22.743,0,0,1-9.18,0,4.876,4.876,0,0,1-3.8-3.8,22.748,22.748,0,0,1,0-9.181,4.873,4.873,0,0,1,3.8-3.8,22.648,22.648,0,0,1,9.18,0,4.873,4.873,0,0,1,3.8,3.8,22.712,22.712,0,0,1,0,9.181c-.027.13-.071.252-.107.377l.9.9a5.882,5.882,0,0,0,.328-1.048,23.856,23.856,0,0,0,0-9.64A6.02,6.02,0,0,0,14.922.591a23.892,23.892,0,0,0-9.64,0A6.02,6.02,0,0,0,.591,5.282a23.892,23.892,0,0,0,0,9.64,6.019,6.019,0,0,0,4.691,4.692,24.1,24.1,0,0,0,4.82.491,23.951,23.951,0,0,0,4.82-.491,6.075,6.075,0,0,0,1.033-.322l-.9-.9c-.12.034-.237.077-.362.1m.114.559h0Z" fill="#001931"/>
    <path id="Path_512" data-name="Path 512" d="M14.674,18.4a22.8,22.8,0,0,1-4.568.466A22.879,22.879,0,0,1,5.533,18.4a4.775,4.775,0,0,1-3.722-3.723,22.618,22.618,0,0,1,0-9.14A4.775,4.775,0,0,1,5.533,1.811a22.6,22.6,0,0,1,9.141,0A4.776,4.776,0,0,1,18.4,5.534a22.618,22.618,0,0,1,0,9.14c-.023.109-.061.212-.09.317l.04.041c.033-.116.074-.228.1-.348a22.68,22.68,0,0,0,0-9.16,4.827,4.827,0,0,0-3.762-3.762,22.65,22.65,0,0,0-9.161,0A4.826,4.826,0,0,0,1.762,5.524a22.68,22.68,0,0,0,0,9.16,4.824,4.824,0,0,0,3.761,3.762,22.9,22.9,0,0,0,4.583.467,22.826,22.826,0,0,0,4.578-.467c.114-.023.221-.063.331-.094l-.04-.04c-.1.027-.2.064-.3.085" fill="#001931"/>
    <path id="Path_513" data-name="Path 513" d="M14.933,19.663a24.027,24.027,0,0,1-4.83.492,24.138,24.138,0,0,1-4.83-.492,6.064,6.064,0,0,1-4.73-4.73,23.919,23.919,0,0,1,0-9.66A6.068,6.068,0,0,1,5.273.543a23.907,23.907,0,0,1,9.66,0,6.068,6.068,0,0,1,4.73,4.73,23.919,23.919,0,0,1,0,9.66,6.084,6.084,0,0,1-.339,1.075l.037.038a6.136,6.136,0,0,0,.351-1.1,23.981,23.981,0,0,0,0-9.68A6.117,6.117,0,0,0,14.943.494a23.957,23.957,0,0,0-9.68,0A6.117,6.117,0,0,0,.494,5.263a23.981,23.981,0,0,0,0,9.68,6.114,6.114,0,0,0,4.769,4.769,24.237,24.237,0,0,0,4.84.493,24.119,24.119,0,0,0,4.84-.493,6.124,6.124,0,0,0,1.088-.344l-.038-.038a6.078,6.078,0,0,1-1.06.333" fill="#001931"/>
    <path id="Path_514" data-name="Path 514" d="M19.663,5.273a6.068,6.068,0,0,0-4.73-4.73,23.907,23.907,0,0,0-9.66,0,6.068,6.068,0,0,0-4.73,4.73,23.919,23.919,0,0,0,0,9.66,6.063,6.063,0,0,0,4.73,4.73,24.145,24.145,0,0,0,4.83.492,24.027,24.027,0,0,0,4.83-.492,6.116,6.116,0,0,0,1.061-.333l-.038-.038a5.987,5.987,0,0,1-1.033.322,23.886,23.886,0,0,1-4.82.491,24.023,24.023,0,0,1-4.82-.491A6.016,6.016,0,0,1,.592,14.923a23.856,23.856,0,0,1,0-9.64A6.019,6.019,0,0,1,5.283.592a23.892,23.892,0,0,1,9.64,0,6.019,6.019,0,0,1,4.691,4.691,23.892,23.892,0,0,1,0,9.64,6.077,6.077,0,0,1-.328,1.048l.038.037a6.084,6.084,0,0,0,.339-1.075,23.919,23.919,0,0,0,0-9.66" fill="#001931"/>
    <path id="Path_515" data-name="Path 515" d="M18.494,5.513a4.875,4.875,0,0,0-3.8-3.8,22.653,22.653,0,0,0-9.181,0,4.875,4.875,0,0,0-3.8,3.8,22.748,22.748,0,0,0,0,9.181,4.876,4.876,0,0,0,3.8,3.8,22.748,22.748,0,0,0,9.181,0c.124-.025.241-.068.361-.1l-.04-.041c-.111.031-.218.071-.331.094a22.826,22.826,0,0,1-4.578.467,22.9,22.9,0,0,1-4.583-.467,4.826,4.826,0,0,1-3.762-3.761,22.685,22.685,0,0,1,0-9.161A4.824,4.824,0,0,1,5.523,1.762a22.65,22.65,0,0,1,9.161,0,4.823,4.823,0,0,1,3.761,3.761,22.685,22.685,0,0,1,0,9.161c-.024.119-.066.231-.1.347l.04.04c.036-.125.08-.247.107-.377a22.712,22.712,0,0,0,0-9.181" fill="#001931"/>
  </g>
</svg>
