<svg id="Group_1101" data-name="Group 1101" xmlns="http://www.w3.org/2000/svg" width="20" height="19.999" viewBox="0 0 20 19.999">
  <g id="Group_199" data-name="Group 199">
    <path id="Path_241" data-name="Path 241" d="M736.37,1024.413a23.916,23.916,0,0,1-4.818-.493,6.017,6.017,0,0,1-4.689-4.689,23.8,23.8,0,0,1,0-9.636,6.015,6.015,0,0,1,4.689-4.689,23.838,23.838,0,0,1,9.636,0,6.017,6.017,0,0,1,4.689,4.689,23.8,23.8,0,0,1,0,9.636,6.017,6.017,0,0,1-4.689,4.689A23.915,23.915,0,0,1,736.37,1024.413Zm0-18.854a22.729,22.729,0,0,0-4.588.469,4.874,4.874,0,0,0-3.8,3.8,22.707,22.707,0,0,0,0,9.177,4.873,4.873,0,0,0,3.8,3.8,22.7,22.7,0,0,0,9.177,0h0a4.874,4.874,0,0,0,3.8-3.8,22.709,22.709,0,0,0,0-9.177,4.874,4.874,0,0,0-3.8-3.8A22.773,22.773,0,0,0,736.37,1005.559Z" transform="translate(-726.37 -1004.414)" fill="#fff"/>
  </g>
  <g id="Group_1056" data-name="Group 1056" transform="translate(10.113 3.609) rotate(45)">
    <g id="Group_200" data-name="Group 200" transform="translate(0 3.9)">
      <path id="Path_242" data-name="Path 242" d="M8.5,1.394H.7A.7.7,0,1,1,.7,0H8.5a.7.7,0,0,1,0,1.394Z" fill="#fff"/>
    </g>
    <g id="Group_201" data-name="Group 201" transform="translate(3.902)">
      <path id="Path_243" data-name="Path 243" d="M.7,9.2A.7.7,0,0,1,0,8.5V.7A.7.7,0,0,1,1.394.7V8.5A.7.7,0,0,1,.7,9.2Z" fill="#fff"/>
    </g>
  </g>
</svg>
