<svg xmlns="http://www.w3.org/2000/svg" width="21.191" height="21.191" viewBox="0 0 21.191 21.191">
  <g id="Layer_51" data-name="Layer 51" transform="translate(-2 -2)">
    <path id="Path_364" data-name="Path 364" d="M20.164,11.544V9.954a6.49,6.49,0,0,0-4.541-5.9,8.325,8.325,0,0,0-2.271-.5V2.757a.757.757,0,0,0-1.514,0v.757a8.325,8.325,0,0,0-2.271.5,6.49,6.49,0,0,0-4.541,5.9v1.589A6.743,6.743,0,0,0,2,16.97a4.27,4.27,0,0,0,4.541,3.951H18.65c2.505,0,4.541-1.756,4.541-3.913a6.743,6.743,0,0,0-3.027-5.464ZM18.65,19.407H6.541c-1.673,0-3.027-1.075-3.027-2.4A5.3,5.3,0,0,1,6.185,12.6a.757.757,0,0,0,.356-.643v-2a5.03,5.03,0,0,1,3.55-4.488,7.364,7.364,0,0,1,5.01,0,5.03,5.03,0,0,1,3.55,4.488v2a.757.757,0,0,0,.356.636,5.3,5.3,0,0,1,2.672,4.42C21.678,18.333,20.323,19.407,18.65,19.407Z" fill="#072040"/>
    <path id="Path_365" data-name="Path 365" d="M16.784,28H13.757a.757.757,0,1,0,0,1.514h3.027a.757.757,0,1,0,0-1.514Z" transform="translate(-2.675 -6.322)" fill="#566577"/>
  </g>
</svg>
