<svg xmlns="http://www.w3.org/2000/svg" width="10.319" height="8.585" viewBox="0 0 10.319 8.585">
  <g id="Group_114" data-name="Group 114" transform="translate(0.1 0.1)">
    <path id="arrow-down" d="M3.289,4.728l1.52-1.52a.385.385,0,1,1,.544.544L3.177,5.929a.384.384,0,0,1-.544,0L.456,3.752A.385.385,0,1,1,1,3.208l1.52,1.52V-1.958A.385.385,0,0,1,2.9-2.343a.385.385,0,0,1,.385.385Z" transform="translate(-0.343 2.343)" fill="#566577" stroke="#566577" stroke-width="0.2"/>
    <path id="arrow-down-2" data-name="arrow-down" d="M3.289-1.029,4.809.491a.385.385,0,1,0,.544-.544L3.177-2.23A.384.384,0,0,0,2.9-2.343a.384.384,0,0,0-.272.113L.456-.053A.385.385,0,1,0,1,.491l1.52-1.52V5.657a.385.385,0,1,0,.77,0Z" transform="translate(4.653 2.343)" fill="#566577" stroke="#566577" stroke-width="0.2"/>
  </g>
</svg>
